#!OML:ASF H:\LiuWeirdWalks\Patient Classification 1\Patient 1\Session 1\male.ASF
:FULLY-SPECIFIED
:DEGREES
301
root 2.21885 18.147 32.1729 -1.09282 13.0417 -0.391444
lowerback 4.97921 -1.09823 -4.98968
upperback 3.01494 -1.65442 1.67516
thorax 0.515162 -0.909338 4.60543
lowerneck -17.8871 3.57801 8.77411
upperneck 0.909773 3.71942 -12.4496
head 3.57236 1.2719 -5.00525
rclavicle 3.27746e-014 -5.1684e-015
rhumerus -26.3237 10.043 -78.0752
rradius 58.0183
rwrist -14.7268
rhand -14.5192 3.04569
rfingers 7.12502
rthumb 11.6284 -26.6116
lclavicle 3.27746e-014 -5.1684e-015
lhumerus -56.6297 20.3045 68.7122
lradius 18.529
lwrist -10.9999
lhand 0.00945 -1.01215
lfingers 7.12502
lthumb 25.5994 27.2873
rfemur -17.0486 -9.88838 21.495
rtibia 40.1535
rfoot -5.60338 -22.177
rtoes -7.55632
lfemur -24.458 0.283862 -17.0729
ltibia 39.2547
lfoot -5.00243 5.26452
ltoes -19.3692
302
root 2.2405 18.1213 32.2583 -1.43067 13.0405 -1.0937
lowerback 5.03572 -0.940138 -4.0055
upperback 3.13864 -1.40414 1.62544
thorax 0.551705 -0.772602 3.98683
lowerneck -18.0061 3.37576 8.45659
upperneck 0.965996 3.49276 -12.1461
head 3.56831 1.16908 -4.87585
rclavicle 2.29224e-015 -9.19379e-015
rhumerus -25.9698 9.56162 -77.6434
rradius 58.5352
rwrist -15.5811
rhand -14.5148 2.73422
rfingers 7.12502
rthumb 11.6326 -26.9229
lclavicle 2.29224e-015 -9.19379e-015
lhumerus -56.75 21.0423 67.4015
lradius 18.098
lwrist -10.7715
lhand 1.35211 0.251948
lfingers 7.12502
lthumb 26.8848 28.3601
rfemur -16.4054 -9.88238 22.176
rtibia 40.0131
rfoot -6.16582 -22.3221
rtoes -7.24936
lfemur -24.1415 -0.265907 -16.436
ltibia 38.1232
lfoot -4.77557 4.56464
ltoes -19.5247
303
root 2.26398 18.093 32.3425 -1.79727 13.0192 -1.85897
lowerback 5.09631 -0.779698 -2.93651
upperback 3.25582 -1.14744 1.59316
thorax 0.586737 -0.630171 3.33911
lowerneck -18.0875 3.15645 8.11741
upperneck 1.01644 3.24962 -11.8265
head 3.55577 1.06022 -4.73932
rclavicle -1.08951e-014 1.05232e-014
rhumerus -25.6086 9.01341 -77.1975
rradius 58.9357
rwrist -16.3094
rhand -14.5459 2.45087
rfingers 7.12502
rthumb 11.6027 -27.2079
lclavicle -1.08951e-014 1.05232e-014
lhumerus -56.8137 21.6592 66.2379
lradius 17.7015
lwrist -10.7368
lhand 2.57915 1.4622
lfingers 7.12502
lthumb 28.0583 29.384
rfemur -15.7604 -9.90214 22.9142
rtibia 39.8905
rfoot -6.70756 -22.4365
rtoes -7.02929
lfemur -23.8126 -0.797754 -15.7442
ltibia 37.1906
lfoot -4.35874 3.88492
ltoes -19.0692
304
root 2.28922 18.0629 32.4251 -2.11266 12.9943 -2.51466
lowerback 5.12317 -0.619539 -1.9661
upperback 3.35771 -0.894635 1.53891
thorax 0.63723 -0.489825 2.72488
lowerneck -18.1768 2.92817 7.75101
upperneck 1.1111 3.00231 -11.482
head 3.55813 0.949561 -4.59098
rclavicle 1.44678e-014 6.90777e-015
rhumerus -25.2268 8.43019 -76.7389
rradius 59.2188
rwrist -16.9259
rhand -14.6286 2.22142
rfingers 7.12502
rthumb 11.5229 -27.4418
lclavicle 1.44678e-014 6.90777e-015
lhumerus -56.7757 22.0435 65.3867
lradius 17.3339
lwrist -10.9021
lhand 3.513 2.42202
lfingers 7.12502
lthumb 28.9506 30.1943
rfemur -15.1762 -9.9556 23.5294
rtibia 39.8118
rfoot -7.22267 -22.5202
rtoes -6.89961
lfemur -23.5103 -1.28387 -15.1998
ltibia 36.4721
lfoot -3.76178 3.27412
ltoes -17.7283
305
root 2.31555 18.0328 32.5063 -2.27981 12.9548 -2.84933
lowerback 5.07464 -0.4016 -1.22924
upperback 3.45195 -0.574346 1.38165
thorax 0.730261 -0.317669 2.1333
lowerneck -18.4341 2.6256 7.23384
upperneck 1.3214 2.68066 -11.0184
head 3.61132 0.800971 -4.38724
rclavicle 3.16316e-014 -5.86415e-015
rhumerus -24.8174 7.64768 -76.2303
rradius 59.3803
rwrist -17.3855
rhand -14.7609 2.06707
rfingers 7.12502
rthumb 11.3954 -27.6033
lclavicle 3.16316e-014 -5.86415e-015
lhumerus -56.4936 22.0981 64.9349
lradius 17.0577
lwrist -10.7803
lhand 4.46647 3.38166
lfingers 7.12502
lthumb 29.861 30.994
rfemur -14.7355 -10.0011 23.8093
rtibia 39.8307
rfoot -7.75296 -22.5861
rtoes -6.80828
lfemur -23.254 -1.6932 -15.0317
ltibia 35.9423
lfoot -3.08475 2.85495
ltoes -15.5815
306
root 2.34288 18.0015 32.5856 -2.46782 12.8874 -3.20843
lowerback 5.02955 -0.280266 -0.701144
upperback 3.49087 -0.392076 1.32915
thorax 0.781972 -0.217628 1.77425
lowerneck -18.3237 2.46018 6.92491
upperneck 1.39128 2.51827 -10.7294
head 3.58981 0.735843 -4.25853
rclavicle 4.05024e-015 -1.32192e-014
rhumerus -24.4023 7.23317 -75.7814
rradius 59.4218
rwrist -17.7501
rhand -14.9194 1.9541
rfingers 7.12502
rthumb 11.2425 -27.7246
lclavicle 4.05024e-015 -1.32192e-014
lhumerus -56.4548 22.0471 64.77
lradius 16.742
lwrist -11.8364
lhand 4.31368 3.08643
lfingers 7.12502
lthumb 29.7151 30.7249
rfemur -14.3262 -10.0125 24.1141
rtibia 39.9499
rfoot -8.35223 -22.673
rtoes -6.70799
lfemur -22.9327 -1.96615 -14.8677
ltibia 35.6038
lfoot -2.51528 2.63447
ltoes -13.1035
307
root 2.37051 17.9709 32.6629 -2.47148 12.8149 -3.15446
lowerback 4.8852 -0.215999 -0.768719
upperback 3.46051 -0.308906 1.24459
thorax 0.827867 -0.176518 1.72105
lowerneck -18.0032 2.39355 6.74479
upperneck 1.41915 2.47347 -10.5481
head 3.53876 0.730054 -4.17445
rclavicle -1.34677e-014 5.96354e-016
rhumerus -23.972 7.07228 -75.3803
rradius 59.3548
rwrist -18.0236
rhand -15.1036 1.8918
rfingers 7.12502
rthumb 11.0648 -27.7965
lclavicle -1.34677e-014 5.96354e-016
lhumerus -56.6247 22.1216 64.583
lradius 16.3798
lwrist -13.7822
lhand 3.54898 2.03565
lfingers 7.12502
lthumb 28.985 29.802
rfemur -14.0854 -9.97989 23.9884
rtibia 40.1808
rfoot -9.01575 -22.7529
rtoes -6.55717
lfemur -22.6317 -2.16358 -15.1763
ltibia 35.4245
lfoot -2.2012 2.74717
ltoes -10.812
308
root 2.39794 17.9401 32.7384 -2.40522 12.7467 -2.90061
lowerback 4.70623 -0.239368 -1.2566
upperback 3.3713 -0.357048 1.19518
thorax 0.840866 -0.208124 1.94544
lowerneck -17.4082 2.45481 6.76505
upperneck 1.35554 2.5743 -10.5373
head 3.43694 0.797365 -4.16445
rclavicle -4.24902e-015 -9.93923e-016
rhumerus -23.5228 7.2093 -75.0458
rradius 59.1777
rwrist -18.1552
rhand -15.2758 1.84629
rfingers 7.12502
rthumb 10.8987 -27.8509
lclavicle -4.24902e-015 -9.93923e-016
lhumerus -57.0848 22.4166 64.2549
lradius 15.9458
lwrist -16.9027
lhand 1.9532 0.175367
lfingers 7.12502
lthumb 27.4598 28.1937
rfemur -13.9146 -9.92652 23.6459
rtibia 40.4824
rfoot -9.76074 -22.8252
rtoes -6.30396
lfemur -22.2975 -2.29468 -15.7221
ltibia 35.3854
lfoot -2.23985 3.2004
ltoes -9.15539
309
root 2.42489 17.9084 32.8123 -2.36086 12.675 -2.66887
lowerback 4.53973 -0.342367 -1.9095
upperback 3.23723 -0.51586 1.22577
thorax 0.810204 -0.297509 2.34919
lowerneck -16.5708 2.62254 6.96537
upperneck 1.21737 2.79898 -10.6866
head 3.29198 0.927129 -4.22509
rclavicle -2.36554e-014 2.78299e-015
rhumerus -23.0658 7.58371 -74.7732
rradius 58.8989
rwrist -18.1424
rhand -15.4397 1.80212
rfingers 7.12502
rthumb 10.7406 -27.9033
lclavicle -2.36554e-014 2.78299e-015
lhumerus -57.8058 22.8926 63.7787
lradius 15.4815
lwrist -21.1203
lhand -0.472134 -2.11163
lfingers 7.12502
lthumb 25.1381 26.2533
rfemur -13.7547 -9.83975 23.3249
rtibia 40.8401
rfoot -10.5877 -22.9123
rtoes -6.00093
lfemur -21.8893 -2.3969 -16.2492
ltibia 35.4096
lfoot -2.58435 3.95628
ltoes -8.33182
310
root 2.45142 17.8768 32.8847 -2.28802 12.6233 -2.38452
lowerback 4.38839 -0.326554 -2.34921
upperback 3.15705 -0.507394 1.14322
thorax 0.815754 -0.298892 2.5103
lowerneck -16.1863 2.62604 6.92487
upperneck 1.27156 2.83134 -10.633
head 3.24975 0.954973 -4.199
rclavicle -4.38569e-014 -7.95139e-015
rhumerus -22.596 7.39657 -74.4402
rradius 58.5551
rwrist -17.9504
rhand -15.5864 1.75414
rfingers 7.12502
rthumb 10.5991 -27.9586
lclavicle -4.38569e-014 -7.95139e-015
lhumerus -57.9632 22.9958 63.6803
lradius 15.1832
lwrist -23.8438
lhand -1.95092 -3.41605
lfingers 7.12502
lthumb 23.7205 25.1401
rfemur -13.6268 -9.76655 22.9417
rtibia 41.2167
rfoot -11.4739 -22.9849
rtoes -5.63796
lfemur -21.4803 -2.53231 -16.8326
ltibia 35.444
lfoot -3.10035 4.98798
ltoes -8.03193
311
root 2.47784 17.8458 32.9552 -2.1869 12.5785 -2.05294
lowerback 4.23954 -0.335199 -2.89078
upperback 3.03886 -0.534016 1.06756
thorax 0.784594 -0.318202 2.73726
lowerneck -15.6988 2.65293 6.9581
upperneck 1.28461 2.88631 -10.632
head 3.18314 0.995454 -4.20014
rclavicle 9.69075e-015 -3.97569e-015
rhumerus -22.1624 7.22321 -74.1565
rradius 58.1398
rwrist -17.6292
rhand -15.7327 1.71051
rfingers 7.12502
rthumb 10.458 -28.0094
lclavicle 9.69075e-015 -3.97569e-015
lhumerus -58.1489 23.1159 63.5793
lradius 14.9285
lwrist -26.6167
lhand -3.58236 -4.6404
lfingers 7.12502
lthumb 22.155 24.1101
rfemur -13.5216 -9.70381 22.51
rtibia 41.5839
rfoot -12.3916 -23.0467
rtoes -5.227
lfemur -21.1013 -2.71749 -17.4551
ltibia 35.4468
lfoot -3.66077 6.17563
ltoes -7.95941
312
root 2.50476 17.8165 33.0238 -2.03053 12.5576 -1.63745
lowerback 4.08923 -0.278308 -3.3548
upperback 2.93245 -0.469305 0.910044
thorax 0.758217 -0.289507 2.83312
lowerneck -15.4382 2.58171 6.85854
upperneck 1.38404 2.82166 -10.5044
head 3.16221 0.97413 -4.14899
rclavicle 3.73964e-014 -9.93923e-016
rhumerus -21.763 6.72345 -73.8552
rradius 57.6788
rwrist -17.2098
rhand -15.8974 1.64872
rfingers 7.12502
rthumb 10.2992 -28.0791
lclavicle 3.73964e-014 -9.93923e-016
lhumerus -57.9577 22.9786 63.7694
lradius 14.7799
lwrist -28.274
lhand -4.5274 -5.3872
lfingers 7.12502
lthumb 21.2474 23.4682
rfemur -13.4574 -9.68544 21.9893
rtibia 41.9398
rfoot -13.3246 -23.0877
rtoes -4.79605
lfemur -20.7843 -2.95838 -18.1559
ltibia 35.3888
lfoot -4.12148 7.37057
ltoes -7.79036
313
root 2.5311 17.7893 33.0903 -1.83434 12.5542 -1.18729
lowerback 3.94643 -0.184417 -3.76499
upperback 2.81975 -0.352874 0.704931
thorax 0.715604 -0.232894 2.84813
lowerneck -15.2984 2.44747 6.68785
upperneck 1.52492 2.67642 -10.2865
head 3.16272 0.912553 -4.06387
rclavicle 6.08778e-015 1.11319e-014
rhumerus -21.4189 6.00375 -73.5717
rradius 57.1694
rwrist -16.7188
rhand -16.0947 1.59796
rfingers 7.12502
rthumb 10.1088 -28.1392
lclavicle 6.08778e-015 1.11319e-014
lhumerus -57.5131 22.6679 64.1544
lradius 14.7277
lwrist -29.085
lhand -4.96259 -5.79765
lfingers 7.12502
lthumb 20.8294 23.1042
rfemur -13.4282 -9.68923 21.4447
rtibia 42.2743
rfoot -14.2342 -23.1422
rtoes -4.35118
lfemur -20.5369 -3.22388 -18.8677
ltibia 35.287
lfoot -4.43665 8.48239
ltoes -7.4541
